<?xml version="1.0" standalone="no"?>
<!DOCTYPE svg PUBLIC "-//W3C//DTD SVG 20010904//EN"
 "http://www.w3.org/TR/2001/REC-SVG-20010904/DTD/svg10.dtd">
<svg version="1.0" xmlns="http://www.w3.org/2000/svg"
 width="217.000000pt" height="209.000000pt" viewBox="0 0 217.000000 209.000000"
 preserveAspectRatio="xMidYMid meet">

<g transform="translate(0.000000,209.000000) scale(0.100000,-0.100000)"
fill="#000000" stroke="none">
<path d="M494 2070 c-211 -55 -365 -201 -441 -415 l-28 -80 0 -530 0 -530 28
-80 c37 -105 84 -181 157 -252 71 -71 162 -126 255 -156 69 -22 80 -22 605
-22 525 0 536 0 605 22 194 62 341 207 412 408 l28 80 0 525 c0 521 0 526 -23
600 -62 198 -215 356 -412 423 -63 21 -78 22 -590 24 -488 2 -530 1 -596 -17z
m1103 -790 c51 -123 92 -225 90 -226 -5 -5 -1140 -474 -1146 -474 -6 0 -61
129 -61 143 0 3 12 18 26 32 22 22 25 32 20 63 -7 48 -40 75 -83 70 -31 -4
-33 -2 -63 70 -17 41 -29 76 -27 78 9 10 1133 472 1142 470 5 -1 51 -103 102
-226z m-848 -54 c-2 -2 -52 -24 -111 -49 l-108 -45 0 49 0 49 112 0 c61 0 109
-2 107 -4z m1041 -261 l0 -245 -412 0 c-226 0 -409 2 -407 4 2 2 171 72 374
156 204 84 372 155 374 157 3 2 -10 38 -27 81 -18 42 -32 80 -32 85 0 4 29 7
65 7 l65 0 0 -245z"/>
<path d="M680 1144 c0 -8 5 -12 10 -9 6 4 8 11 5 16 -9 14 -15 11 -15 -7z"/>
<path d="M700 1094 c0 -8 5 -12 10 -9 6 4 8 11 5 16 -9 14 -15 11 -15 -7z"/>
<path d="M720 1040 c0 -5 5 -10 10 -10 6 0 10 5 10 10 0 6 -4 10 -10 10 -5 0
-10 -4 -10 -10z"/>
<path d="M740 990 c0 -5 5 -10 10 -10 6 0 10 5 10 10 0 6 -4 10 -10 10 -5 0
-10 -4 -10 -10z"/>
<path d="M760 940 c0 -5 5 -10 10 -10 6 0 10 5 10 10 0 6 -4 10 -10 10 -5 0
-10 -4 -10 -10z"/>
<path d="M785 890 c3 -5 8 -10 11 -10 2 0 4 5 4 10 0 6 -5 10 -11 10 -5 0 -7
-4 -4 -10z"/>
<path d="M805 840 c3 -5 8 -10 11 -10 2 0 4 5 4 10 0 6 -5 10 -11 10 -5 0 -7
-4 -4 -10z"/>
<path d="M825 790 c3 -5 11 -10 16 -10 6 0 7 5 4 10 -3 6 -11 10 -16 10 -6 0
-7 -4 -4 -10z"/>
<path d="M850 740 c0 -5 5 -10 11 -10 5 0 7 5 4 10 -3 6 -8 10 -11 10 -2 0 -4
-4 -4 -10z"/>
</g>
</svg>
